<?xml version="1.0" encoding="utf-8"?>
<!-- Generator: Adobe Illustrator 24.0.0, SVG Export Plug-In . SVG Version: 6.00 Build 0)  -->
<svg version="1.1" id="Layer_1" xmlns="http://www.w3.org/2000/svg" xmlns:xlink="http://www.w3.org/1999/xlink" x="0px" y="0px"
	 viewBox="0 0 26 26" style="enable-background:new 0 0 26 26;" xml:space="preserve">
<g>
	<path d="M17.3,26c-0.6-0.2-0.7-0.7-0.7-1.3c0-4.4,0-8.8,0-13.2c0-0.2,0-0.3-0.3-0.3c-0.9,0-1.9,0-2.8,0c-0.4,0-0.7-0.2-0.9-0.5
		c-0.2-0.3-0.1-0.7,0.1-1c0.2-0.3,0.5-0.4,0.8-0.4c1.1,0,2.1,0,3.2,0c0.2,0,0.4,0,0.6,0.1c0.6,0.2,1.1,0.8,1.1,1.4
		c0,0.1,0,0.3,0,0.4c0,4.5,0,9,0,13.5c0,0.6-0.2,1-0.8,1.2C17.6,26,17.4,26,17.3,26z"/>
	<path d="M8.7,0c0.6,0.2,0.7,0.6,0.7,1.2c0,4.4,0,8.9,0,13.3c0,0.2,0.1,0.3,0.3,0.3c0.9,0,1.9,0,2.8,0c0.4,0,0.8,0.3,0.9,0.7
		c0.1,0.4,0,0.8-0.3,1c-0.2,0.1-0.3,0.2-0.5,0.2c-1.2,0-2.4,0-3.5,0c-0.8,0-1.4-0.7-1.5-1.5c0-0.2,0-0.4,0-0.6c0-4.5,0-8.9,0-13.4
		c0-0.6,0.2-1,0.7-1.3C8.4,0,8.5,0,8.7,0z"/>
</g>
</svg>
